<svg xmlns="http://www.w3.org/2000/svg" viewBox="0 0 64 96" shape-rendering="crispEdges">
  <g>
    <!-- hair -->
    <rect x="15" y="8" width="18" height="4" fill="#6b2b26"/>
    <rect x="12" y="12" width="24" height="6" fill="#6b2b26"/>
    <rect x="10" y="18" width="24" height="8" fill="#6b2b26"/>
    <rect x="9" y="26" width="22" height="10" fill="#6b2b26"/>
    <rect x="10" y="36" width="19" height="10" fill="#6b2b26"/>
    <rect x="13" y="46" width="14" height="8" fill="#6b2b26"/>
    <rect x="16" y="13" width="4" height="5" fill="#d18b47"/>
    <rect x="13" y="24" width="3" height="6" fill="#d18b47"/>
    <rect x="16" y="38" width="3" height="6" fill="#d18b47"/>
    <!-- face / neck -->
    <rect x="31" y="17" width="8" height="15" fill="#f1a261"/>
    <rect x="38" y="20" width="3" height="8" fill="#f1a261"/>
    <rect x="30" y="29" width="6" height="7" fill="#f1a261"/>
    <rect x="37" y="21" width="2" height="2" fill="#11154e"/>
    <!-- blouse -->
    <rect x="24" y="34" width="18" height="20" fill="#f2f2e8"/>
    <rect x="21" y="40" width="7" height="14" fill="#f2f2e8"/>
    <rect x="25" y="46" width="6" height="8" fill="#858be6"/>
    <rect x="36" y="47" width="6" height="7" fill="#858be6"/>
    <!-- pointing arm -->
    <rect x="40" y="34" width="7" height="6" fill="#f2f2e8"/>
    <rect x="46" y="31" width="6" height="6" fill="#f2f2e8"/>
    <rect x="51" y="28" width="5" height="6" fill="#f2f2e8"/>
    <rect x="55" y="24" width="4" height="6" fill="#f1a261"/>
    <rect x="58" y="21" width="4" height="6" fill="#f1a261"/>
    <!-- waist / upper skirt -->
    <rect x="23" y="53" width="21" height="5" fill="#0e1250"/>
    <rect x="21" y="58" width="25" height="6" fill="#131666"/>
    <rect x="24" y="58" width="4" height="6" fill="#858be6"/>
    <rect x="39" y="58" width="4" height="6" fill="#858be6"/>
  </g>
</svg>
